<svg xmlns="http://www.w3.org/2000/svg" viewBox="0 0 1936 1600" fill="none"><defs><filter id="s" x="0" y="0" width="1936" height="1600" filterUnits="userSpaceOnUse" color-interpolation-filters="sRGB"><feFlood flood-opacity="0" result="bg"/><feColorMatrix in="SourceAlpha" values="0 0 0 0 0  0 0 0 0 0  0 0 0 0 0  0 0 0 127 0" result="a"/><feOffset dy="8.31"/><feGaussianBlur stdDeviation="15.06"/><feComposite in2="a" operator="out"/><feColorMatrix values="0 0 0 0 0  0 0 0 0 0  0 0 0 0 0  0 0 0 0.1 0"/><feBlend in2="bg" result="s1"/><feColorMatrix in="SourceAlpha" values="0 0 0 0 0  0 0 0 0 0  0 0 0 0 0  0 0 0 127 0" result="a2"/><feOffset dy="8.31"/><feGaussianBlur stdDeviation="4.16"/><feComposite in2="a2" operator="out"/><feColorMatrix values="0 0 0 0 0  0 0 0 0 0  0 0 0 0 0  0 0 0 0.25 0"/><feBlend in2="s1" result="s2"/><feBlend in="SourceGraphic" in2="s2"/></filter></defs><path filter="url(#s)" d="M184.7 1629.4L184.7 1578.2L216.6 1510.3L207.4 1451.8L223.7 1382.0L224.7 1303.6L238.1 1236.6L236.8 1144.9L249.5 1122.9L271.5 1038.5L297.7 983.3L349.8 931.8L409.9 892.7L468.4 852.9L559.8 817.6L611.9 769.7L675.2 766.5L747.9 722.2L797.2 652.1L771.0 571.0L751.9 504.7L736.0 450.6L782.1 385.4L784.3 311.0L819.6 236.1L913.7 169.4L971.6 131.5L1012.0 116.4L1098.4 126.7L1123.5 126.2L1168.8 146.9L1192.3 154.0L1250.8 212.4L1314.0 240.9L1350.3 280.7L1353.9 322.0L1355.3 411.4L1366.3 456.9L1372.8 534.2L1358.4 557.0L1323.7 616.5L1303.2 655.7L1278.6 668.0L1250.6 738.0L1305.4 792.5L1382.9 813.4L1402.7 833.1L1446.6 843.6L1489.7 903.4L1502.5 944.8L1531.1 993.9L1558.2 1084.2L1548.4 1130.0L1561.5 1244.0L1566.9 1279.3L1570.2 1350.8L1567.7 1403.7L1593.9 1475.6L1596.9 1560.4L1596.9 1629.4Z" fill="#FFFEF2"/></svg>
